<svg class="u-absolute u-bottom-0 u-bottom-0" xmlns="http://www.w3.org/2000/svg" width="70" height="85.41" viewBox="0 0 70 85.41">
    <path fill="#005695" d="M5270.147,1557.982a13.392,13.392,0,1,0-8.59.007,20.369,20.369,0,0,0-10.36,5.856c-.151-.158-.3-.318-.453-.472a20.133,20.133,0,0,0-9.952-5.43,13.392,13.392,0,1,0-8.6,0,20.8,20.8,0,0,0-16.031,20.322v4.066a2.182,2.182,0,1,0,4.365,0v-4.358a16.046,16.046,0,0,1,4.79-11.487,15.754,15.754,0,0,1,11.479-4.609,16.264,16.264,0,0,1,15.65,16.385v4.069a2.182,2.182,0,1,0,4.365,0v-4.358a20.459,20.459,0,0,0-2.921-10.594,15.909,15.909,0,0,1,27.908,10.633v4.319a2.182,2.182,0,1,0,4.365,0v-4.319A20.492,20.492,0,0,0,5270.147,1557.982Zm-4.307-21.891a9.1,9.1,0,1,1-9.026,9.1A9.076,9.076,0,0,1,5265.84,1536.092Zm-29.35-.04a9.1,9.1,0,1,1-9.026,9.1A9.075,9.075,0,0,1,5236.49,1536.052Z" transform="translate(-5216.165 -1499.126)"></path>
    <path fill="#bfbfbf" d="M5296.782,1451a2.147,2.147,0,0,0,.622,1.507,2.107,2.107,0,0,0,1.5.622h15.729l6.784,5.143a.388.388,0,0,0,.231.077.384.384,0,0,0,.308-.154.365.365,0,0,0,.071-.3l-.885-4.777h2.271a2.146,2.146,0,0,0,1.506-.622,2.109,2.109,0,0,0,.622-1.507V1436.65a2.136,2.136,0,0,0-.615-1.494v-.006l-.007-.007a2.107,2.107,0,0,0-1.506-.615l-24.509-.013a2.145,2.145,0,0,0-1.507.622,2.188,2.188,0,0,0-.52.84,2.212,2.212,0,0,0-.1.763C5296.775,1437.158,5296.782,1451,5296.782,1451Z" transform="translate(-5269.57 -1434.515)"></path>
    <path fill="#005695" d="M5286.5,1456.262a2.222,2.222,0,0,0-.1-.763,2.2,2.2,0,0,0-.52-.84,2.147,2.147,0,0,0-1.507-.622l-24.509.013a2.11,2.11,0,0,0-1.508.616l-.006.006v.007a2.134,2.134,0,0,0-.616,1.494v14.336a2.111,2.111,0,0,0,.622,1.507,2.149,2.149,0,0,0,1.508.622h2.271l-.885,4.777a.364.364,0,0,0,.071.3.385.385,0,0,0,.539.077l6.784-5.142h15.73a2.1,2.1,0,0,0,1.5-.622,2.147,2.147,0,0,0,.622-1.507S5286.5,1456.68,5286.5,1456.262Z" transform="translate(-5243.704 -1447.352)"></path>
</svg>