<svg class="u-absolute u-bottom-0 u-bottom-0" xmlns="http://www.w3.org/2000/svg" width="70" height="68.506" viewBox="0 0 70 68.506">
    <path fill="#bfbfbf" d="M5566.22,1547.455l2.065-2.061c1.052-1.054,3.819,0,3.821,0l16.747,16.893a2.69,2.69,0,0,1,.006,3.81l-.006.006-7.643,7.631a2.7,2.7,0,0,1-3.816.006l-.006-.006-16.747-16.89c-1.056-1.05,0-3.814,0-3.816l1.89-1.882-27.147-27.177h-5.532l-6.412-10.283,5.158-5.155,10.532,6.436.068,5.41Z" transform="translate(-5523.439 -1506.171)"></path>
    <path fill="#005695" d="M5594.727,1512.427a17.445,17.445,0,0,1-24.738,21.858l-31.432,34.283a5.392,5.392,0,0,1-7.616,0l-1.91-1.906a5.37,5.37,0,0,1,0-7.6l0,0,35.449-29.642a17.452,17.452,0,0,1,20.7-26.475l-11.325,11.138,9.527,9.51,11.341-11.165Zm-59.377,49.315a2.693,2.693,0,1,0,0,3.807,2.7,2.7,0,0,0,0-3.807Z" transform="translate(-5526.079 -1501.637)"></path>
</svg>